# xmcd
#
# Track frame offsets:
#	255
#	15567
#	29395
#	42374
#	55242
#	72344
#	85272
#	99062
#	114047
#	130549
#
# Disc length: 1910 seconds
#
# Revision: 0
# Processed by: cddbd v1.4PL0 Copyright (c) Steve Scherf et al.
# Submitted via: EasyCDDAExtractor 4.6.0.1
#
DISCID=7007730a
DTITLE=Joe Grenier - welcome to my honky tonk heaven
DYEAR=1995
DGENRE=Country
TTITLE0=high tides of life
TTITLE1=if country music wasn't country anymore
TTITLE2=hold the roses
TTITLE3=if hell only had a jukebox
TTITLE4=medina
TTITLE5=rhinestone rodeo
TTITLE6=welcome to my honky honk heaven
TTITLE7=hearts to heart
TTITLE8=on your mind
TTITLE9=have you seen my chicken
EXTD=
EXTT0=
EXTT1=
EXTT2=
EXTT3=
EXTT4=
EXTT5=
EXTT6=
EXTT7=
EXTT8=
EXTT9=
PLAYORDER=
